<mxfile host="app.diagrams.net" modified="2024-04-15T12:03:19.340Z" agent="Mozilla/5.0 (Windows NT 10.0; Win64; x64) AppleWebKit/537.36 (KHTML, like Gecko) Chrome/123.0.0.0 Safari/537.36" etag="xPDkH2ztT4VESxziCCig" version="24.2.5" type="github">
  <diagram name="페이지-1" id="xf3xIOZW2-mVcEWYP7Wv">
    <mxGraphModel dx="792" dy="1096" grid="1" gridSize="10" guides="0" tooltips="1" connect="1" arrows="1" fold="1" page="1" pageScale="1" pageWidth="827" pageHeight="1169" math="0" shadow="0">
      <root>
        <mxCell id="0" />
        <mxCell id="1" parent="0" />
        <mxCell id="3UlldwPeITaiaxXxCVCP-1" value="&lt;p style=&quot;line-height: 100%;&quot;&gt;&lt;br&gt;&lt;/p&gt;" style="rounded=0;whiteSpace=wrap;html=1;" vertex="1" parent="1">
          <mxGeometry x="120" y="40" width="600" height="1010" as="geometry" />
        </mxCell>
        <mxCell id="3UlldwPeITaiaxXxCVCP-2" value="Food Track" style="text;html=1;align=center;verticalAlign=middle;whiteSpace=wrap;rounded=0;fontSize=32;fontStyle=1" vertex="1" parent="1">
          <mxGeometry x="300" y="70" width="227.5" height="20" as="geometry" />
        </mxCell>
        <mxCell id="3UlldwPeITaiaxXxCVCP-3" value="&lt;font style=&quot;font-size: 18px;&quot;&gt;Customer&lt;/font&gt;" style="shape=umlActor;verticalLabelPosition=bottom;verticalAlign=top;html=1;outlineConnect=0;" vertex="1" parent="1">
          <mxGeometry y="210" width="80" height="150" as="geometry" />
        </mxCell>
        <mxCell id="3UlldwPeITaiaxXxCVCP-7" value="&lt;font style=&quot;font-size: 20px;&quot;&gt;Seller&lt;/font&gt;" style="shape=umlActor;verticalLabelPosition=bottom;verticalAlign=top;html=1;outlineConnect=0;" vertex="1" parent="1">
          <mxGeometry y="810" width="80" height="150" as="geometry" />
        </mxCell>
        <mxCell id="3UlldwPeITaiaxXxCVCP-8" value="&lt;font style=&quot;font-size: 15px;&quot;&gt;Administrator&lt;/font&gt;" style="shape=umlActor;verticalLabelPosition=bottom;verticalAlign=top;html=1;outlineConnect=0;" vertex="1" parent="1">
          <mxGeometry x="740" y="470" width="80" height="150" as="geometry" />
        </mxCell>
        <mxCell id="3UlldwPeITaiaxXxCVCP-16" style="edgeStyle=orthogonalEdgeStyle;rounded=0;orthogonalLoop=1;jettySize=auto;html=1;endArrow=none;endFill=0;" edge="1" parent="1" source="3UlldwPeITaiaxXxCVCP-9" target="3UlldwPeITaiaxXxCVCP-8">
          <mxGeometry relative="1" as="geometry" />
        </mxCell>
        <mxCell id="3UlldwPeITaiaxXxCVCP-9" value="&lt;font style=&quot;font-size: 20px;&quot;&gt;Login&lt;/font&gt;" style="ellipse;whiteSpace=wrap;html=1;" vertex="1" parent="1">
          <mxGeometry x="210" y="505" width="120" height="80" as="geometry" />
        </mxCell>
        <mxCell id="3UlldwPeITaiaxXxCVCP-12" style="edgeStyle=orthogonalEdgeStyle;rounded=0;orthogonalLoop=1;jettySize=auto;html=1;entryX=0.5;entryY=1;entryDx=0;entryDy=0;dashed=1;" edge="1" parent="1" source="3UlldwPeITaiaxXxCVCP-11" target="3UlldwPeITaiaxXxCVCP-9">
          <mxGeometry relative="1" as="geometry" />
        </mxCell>
        <mxCell id="3UlldwPeITaiaxXxCVCP-11" value="&lt;font style=&quot;font-size: 20px;&quot;&gt;Sign up&lt;/font&gt;" style="ellipse;whiteSpace=wrap;html=1;" vertex="1" parent="1">
          <mxGeometry x="210" y="670" width="120" height="80" as="geometry" />
        </mxCell>
        <mxCell id="3UlldwPeITaiaxXxCVCP-14" value="&lt;font style=&quot;font-size: 15px;&quot;&gt;&amp;lt;&amp;lt;extend&amp;gt;&amp;gt;&lt;/font&gt;" style="text;html=1;align=center;verticalAlign=middle;whiteSpace=wrap;rounded=0;rotation=90;" vertex="1" parent="1">
          <mxGeometry x="260" y="620" width="60" height="30" as="geometry" />
        </mxCell>
        <mxCell id="3UlldwPeITaiaxXxCVCP-15" value="&lt;font style=&quot;font-size: 20px;&quot;&gt;Login&lt;/font&gt;" style="ellipse;whiteSpace=wrap;html=1;" vertex="1" parent="1">
          <mxGeometry x="460" y="730" width="120" height="80" as="geometry" />
        </mxCell>
      </root>
    </mxGraphModel>
  </diagram>
</mxfile>
